<svg width="153" height="54" viewBox="0 0 153 54" fill="none" xmlns="http://www.w3.org/2000/svg">
<rect x="0.714844" y="0.933594" width="151.612" height="52.5904" rx="16" fill="white" fill-opacity="0.05"/>
<rect x="1.20179" y="1.42054" width="150.639" height="51.6165" rx="15.5131" stroke="white" stroke-opacity="0.15" stroke-width="0.973897"/>
<g clip-path="url(#clip0_368_8219)">
<path d="M47.1798 21.8163L42.3672 26.6289C42.035 26.9611 42.035 27.4998 42.3672 27.832L47.7813 33.2462C48.1136 33.5784 48.6522 33.5784 48.9845 33.2462L53.797 28.4336C54.1293 28.1014 54.1293 27.5627 53.797 27.2305L48.3829 21.8163C48.0507 21.4841 47.512 21.4841 47.1798 21.8163Z" stroke="white" stroke-width="1.7015" stroke-linecap="round" stroke-linejoin="round"/>
<path d="M53.6283 27.375L51.5326 25.0117L49.7034 25.5746L48.9648 26.4602L49.0542 28.0249L49.3479 28.7629L50.3523 29.7371L51.4741 30.2685L52.5073 29.5895L54.0425 28.3791L53.6283 27.375Z" fill="white"/>
<path d="M53.4376 21.8163L48.625 26.6289C48.2928 26.9611 48.2928 27.4998 48.625 27.832L53.4376 32.6446C53.7698 32.9768 54.3085 32.9768 54.6407 32.6446L59.4533 27.832C59.7855 27.4998 59.7855 26.9611 59.4533 26.6289L54.6407 21.8163C54.3085 21.4841 53.7698 21.4841 53.4376 21.8163Z" stroke="white" stroke-width="1.7015" stroke-linecap="round" stroke-linejoin="round"/>
</g>
<path d="M66.3858 32.2305C66.2858 32.2305 66.204 32.1987 66.1404 32.135C66.0767 32.0714 66.0449 31.9941 66.0449 31.9032V23.0271C66.0449 22.9272 66.0767 22.8454 66.1404 22.7817C66.204 22.7181 66.2858 22.6863 66.3858 22.6863H67.4629C67.5902 22.6863 67.6856 22.7226 67.7493 22.7954C67.8129 22.859 67.8538 22.909 67.872 22.9453L70.5034 27.8538L73.1622 22.9453C73.1804 22.909 73.2213 22.859 73.2849 22.7954C73.3485 22.7226 73.444 22.6863 73.5712 22.6863H74.6347C74.7347 22.6863 74.8165 22.7181 74.8801 22.7817C74.9438 22.8454 74.9756 22.9272 74.9756 23.0271V31.9032C74.9756 31.9941 74.9438 32.0714 74.8801 32.135C74.8165 32.1987 74.7347 32.2305 74.6347 32.2305H73.4894C73.3894 32.2305 73.3076 32.1987 73.244 32.135C73.1894 32.0714 73.1622 31.9941 73.1622 31.9032V25.9995L71.2533 29.6399C71.2079 29.7217 71.1488 29.7944 71.0761 29.8581C71.0034 29.9126 70.9079 29.9399 70.7898 29.9399H70.2307C70.1035 29.9399 70.0035 29.9126 69.9308 29.8581C69.8672 29.7944 69.8126 29.7217 69.7672 29.6399L67.8583 25.9995V31.9032C67.8583 31.9941 67.8265 32.0714 67.7629 32.135C67.6993 32.1987 67.622 32.2305 67.5311 32.2305H66.3858ZM77.4236 32.2305C77.3327 32.2305 77.2554 32.1987 77.1918 32.135C77.1282 32.0714 77.0964 31.9941 77.0964 31.9032V23.0271C77.0964 22.9272 77.1282 22.8454 77.1918 22.7817C77.2554 22.7181 77.3327 22.6863 77.4236 22.6863H83.4228C83.5228 22.6863 83.6046 22.7181 83.6682 22.7817C83.7319 22.8454 83.7637 22.9272 83.7637 23.0271V23.927C83.7637 24.0179 83.7319 24.0952 83.6682 24.1588C83.6046 24.2224 83.5228 24.2543 83.4228 24.2543H78.937V26.6676H83.1229C83.2228 26.6676 83.3046 26.6994 83.3683 26.763C83.4319 26.8176 83.4637 26.8948 83.4637 26.9948V27.8401C83.4637 27.9401 83.4319 28.0219 83.3683 28.0856C83.3046 28.1401 83.2228 28.1674 83.1229 28.1674H78.937V30.6625H83.5319C83.6319 30.6625 83.7137 30.6943 83.7773 30.7579C83.8409 30.8216 83.8728 30.9034 83.8728 31.0034V31.9032C83.8728 31.9941 83.8409 32.0714 83.7773 32.135C83.7137 32.1987 83.6319 32.2305 83.5319 32.2305H77.4236ZM85.9053 32.2305C85.8144 32.2305 85.7371 32.1987 85.6735 32.135C85.6098 32.0714 85.578 31.9941 85.578 31.9032V23.0271C85.578 22.9272 85.6098 22.8454 85.6735 22.7817C85.7371 22.7181 85.8144 22.6863 85.9053 22.6863H89.4366C90.5365 22.6863 91.4045 22.9408 92.0408 23.4498C92.6771 23.9588 92.9952 24.6997 92.9952 25.6722C92.9952 26.3449 92.8271 26.9039 92.4907 27.3493C92.1635 27.7947 91.7227 28.1174 91.1682 28.3174L93.1588 31.7942C93.1861 31.8487 93.1997 31.8987 93.1997 31.9441C93.1997 32.026 93.1679 32.0941 93.1043 32.1487C93.0498 32.2032 92.9861 32.2305 92.9134 32.2305H91.6727C91.5181 32.2305 91.4 32.1896 91.3182 32.1078C91.2364 32.026 91.1727 31.9441 91.1273 31.8623L89.3684 28.6309H87.4732V31.9032C87.4732 31.9941 87.4414 32.0714 87.3778 32.135C87.3233 32.1987 87.246 32.2305 87.146 32.2305H85.9053ZM87.4732 27.0902H89.3957C89.9502 27.0902 90.3638 26.9675 90.6364 26.7221C90.9091 26.4676 91.0455 26.1131 91.0455 25.6586C91.0455 25.2041 90.9091 24.8496 90.6364 24.5951C90.3728 24.3315 89.9593 24.1997 89.3957 24.1997H87.4732V27.0902ZM98.434 32.3668C97.5978 32.3668 96.8842 32.2214 96.2934 31.9305C95.7117 31.6396 95.2572 31.2215 94.9299 30.6761C94.6118 30.1217 94.4391 29.4627 94.4118 28.6991C94.4027 28.3083 94.3982 27.8901 94.3982 27.4447C94.3982 26.9903 94.4027 26.563 94.4118 26.1631C94.4391 25.4086 94.6118 24.7633 94.9299 24.227C95.2572 23.6907 95.7162 23.2771 96.307 22.9862C96.907 22.6954 97.616 22.5499 98.434 22.5499C99.0976 22.5499 99.6793 22.6408 100.179 22.8226C100.679 22.9953 101.093 23.2226 101.42 23.5044C101.756 23.777 102.006 24.0725 102.17 24.3906C102.343 24.7087 102.433 25.0042 102.443 25.2768C102.452 25.3587 102.429 25.4268 102.374 25.4814C102.32 25.5359 102.247 25.5632 102.156 25.5632H100.752C100.661 25.5632 100.593 25.545 100.547 25.5086C100.502 25.4723 100.461 25.4177 100.425 25.345C100.352 25.1541 100.238 24.9678 100.084 24.786C99.9293 24.5951 99.7202 24.436 99.4566 24.3088C99.193 24.1815 98.8522 24.1179 98.434 24.1179C97.8159 24.1179 97.3205 24.2815 96.9479 24.6088C96.5843 24.936 96.3888 25.4768 96.3616 26.2313C96.3343 27.0221 96.3343 27.822 96.3616 28.6309C96.3888 29.4036 96.5888 29.958 96.9615 30.2944C97.3433 30.6307 97.8432 30.7988 98.4613 30.7988C98.8703 30.7988 99.2339 30.7261 99.5521 30.5807C99.8793 30.4353 100.134 30.208 100.316 29.899C100.506 29.5899 100.602 29.1945 100.602 28.7128V28.2901H98.9385C98.8476 28.2901 98.7703 28.2583 98.7067 28.1946C98.6431 28.131 98.6113 28.0492 98.6113 27.9492V27.2266C98.6113 27.1266 98.6431 27.0448 98.7067 26.9812C98.7703 26.9175 98.8476 26.8857 98.9385 26.8857H102.197C102.297 26.8857 102.374 26.9175 102.429 26.9812C102.493 27.0448 102.524 27.1266 102.524 27.2266V28.6582C102.524 29.4218 102.356 30.0808 102.02 30.6352C101.693 31.1897 101.22 31.6169 100.602 31.9169C99.9929 32.2168 99.2703 32.3668 98.434 32.3668ZM104.6 32.2305C104.509 32.2305 104.431 32.1987 104.368 32.135C104.304 32.0714 104.272 31.9941 104.272 31.9032V23.0271C104.272 22.9272 104.304 22.8454 104.368 22.7817C104.431 22.7181 104.509 22.6863 104.6 22.6863H110.599C110.699 22.6863 110.781 22.7181 110.844 22.7817C110.908 22.8454 110.94 22.9272 110.94 23.0271V23.927C110.94 24.0179 110.908 24.0952 110.844 24.1588C110.781 24.2224 110.699 24.2543 110.599 24.2543H106.113V26.6676H110.299C110.399 26.6676 110.481 26.6994 110.544 26.763C110.608 26.8176 110.64 26.8948 110.64 26.9948V27.8401C110.64 27.9401 110.608 28.0219 110.544 28.0856C110.481 28.1401 110.399 28.1674 110.299 28.1674H106.113V30.6625H110.708C110.808 30.6625 110.89 30.6943 110.953 30.7579C111.017 30.8216 111.049 30.9034 111.049 31.0034V31.9032C111.049 31.9941 111.017 32.0714 110.953 32.135C110.89 32.1987 110.808 32.2305 110.708 32.2305H104.6Z" fill="white"/>
<defs>
<clipPath id="clip0_368_8219">
<rect width="20.418" height="20.418" fill="white" transform="translate(41.2109 17.0234)"/>
</clipPath>
</defs>
</svg>
