<svg width="21" height="22" viewBox="0 0 21 22" fill="none" xmlns="http://www.w3.org/2000/svg">
<rect width="21" height="22" fill="#1B1B1B"/>
<path d="M-904 -447C-904 -448.105 -903.105 -449 -902 -449H6065C6066.1 -449 6067 -448.105 6067 -447V2505C6067 2506.1 6066.1 2507 6065 2507H-902C-903.105 2507 -904 2506.1 -904 2505V-447Z" fill="#444444"/>
<path d="M-902 -448H6065V-450H-902V-448ZM6066 -447V2505H6068V-447H6066ZM6065 2506H-902V2508H6065V2506ZM-903 2505V-447H-905V2505H-903ZM-902 2506C-902.552 2506 -903 2505.55 -903 2505H-905C-905 2506.66 -903.657 2508 -902 2508V2506ZM6066 2505C6066 2505.55 6065.55 2506 6065 2506V2508C6066.66 2508 6068 2506.66 6068 2505H6066ZM6065 -448C6065.55 -448 6066 -447.552 6066 -447H6068C6068 -448.657 6066.66 -450 6065 -450V-448ZM-902 -450C-903.657 -450 -905 -448.657 -905 -447H-903C-903 -447.552 -902.552 -448 -902 -448V-450Z" fill="white" fill-opacity="0.1"/>
<g clip-path="url(#clip0_0_1)">
<rect x="-373" y="-181.5" width="430" height="932" rx="20" fill="black"/>
<rect x="-153.621" y="-6.54297" width="185.226" height="88.8544" rx="16" fill="white" fill-opacity="0.08"/>
<rect x="-153.104" y="-6.02581" width="184.191" height="87.8201" rx="15.4828" stroke="white" stroke-opacity="0.15" stroke-width="1.03432"/>
<circle cx="10.499" cy="10.5693" r="10.499" fill="#D9D9D9" fill-opacity="0.05"/>
<circle cx="10.499" cy="10.5693" r="10.1477" stroke="white" stroke-opacity="0.15" stroke-width="0.702726"/>
<g filter="url(#filter0_d_0_1)">
<rect x="-17.2031" y="-70.0938" width="49.2323" height="44" rx="16" fill="#A0FF06"/>
<rect x="-16.7031" y="-69.5938" width="48.2323" height="43" rx="15.5" stroke="white" stroke-opacity="0.05"/>
</g>
</g>
<g filter="url(#filter1_d_0_1)">
<path d="M10.45 13.4417C10.3795 13.4417 10.3208 13.4222 10.2738 13.383C10.2269 13.3361 10.2034 13.2735 10.2034 13.1952C10.2034 13.1169 10.2034 13.0386 10.2034 12.9604C10.2034 12.8821 10.2034 12.8038 10.2034 12.7256C10.219 12.389 10.2934 12.0916 10.4265 11.8333C10.5595 11.575 10.72 11.3401 10.9078 11.1288C11.1035 10.9175 11.2992 10.7179 11.4949 10.53C11.6906 10.3343 11.8549 10.1387 11.988 9.94298C12.1289 9.7473 12.215 9.53988 12.2463 9.32071C12.2776 9.03893 12.2228 8.80412 12.0819 8.61626C11.941 8.42058 11.7493 8.27187 11.5066 8.17011C11.264 8.06836 11.0135 8.01748 10.7552 8.01748C10.3404 8.01748 9.98423 8.12706 9.6868 8.34622C9.39719 8.55756 9.20542 8.91761 9.1115 9.42638C9.08801 9.52031 9.04888 9.58684 8.99409 9.62598C8.9393 9.66511 8.87668 9.68468 8.80623 9.68468H8.24267C8.17223 9.68468 8.10961 9.6612 8.05482 9.61423C8.00786 9.56727 7.98438 9.50465 7.98438 9.42638C7.9922 9.10546 8.06265 8.8002 8.19571 8.5106C8.32877 8.22099 8.51663 7.9666 8.75927 7.74744C9.00974 7.52828 9.30326 7.35608 9.63983 7.23084C9.98423 7.09778 10.3678 7.03125 10.7904 7.03125C11.2679 7.03125 11.6749 7.09778 12.0115 7.23084C12.3559 7.35608 12.6298 7.52828 12.8333 7.74744C13.0447 7.95878 13.1973 8.19359 13.2912 8.45189C13.3852 8.71019 13.4243 8.96849 13.4086 9.22679C13.3852 9.53988 13.3069 9.82166 13.1738 10.0721C13.0408 10.3148 12.8803 10.5418 12.6925 10.7531C12.5046 10.9566 12.3128 11.1601 12.1172 11.3636C11.9293 11.5593 11.7649 11.7667 11.624 11.9859C11.491 12.1972 11.4166 12.4281 11.401 12.6786C11.3931 12.7647 11.3853 12.8508 11.3775 12.9369C11.3775 13.0152 11.3775 13.0934 11.3775 13.1717C11.3618 13.2578 11.3305 13.3243 11.2836 13.3713C11.2366 13.4183 11.1701 13.4417 11.084 13.4417H10.45ZM10.356 15.3672C10.2778 15.3672 10.2112 15.3438 10.1564 15.2968C10.1095 15.242 10.086 15.1755 10.086 15.0972V14.381C10.086 14.3027 10.1095 14.2401 10.1564 14.1932C10.2112 14.1384 10.2778 14.111 10.356 14.111H11.1192C11.2053 14.111 11.2718 14.1384 11.3188 14.1932C11.3736 14.2401 11.401 14.3027 11.401 14.381V15.0972C11.401 15.1755 11.3736 15.242 11.3188 15.2968C11.2718 15.3438 11.2053 15.3672 11.1192 15.3672H10.356Z" fill="white"/>
</g>
<defs>
<filter id="filter0_d_0_1" x="-53.2031" y="-92.0938" width="121.23" height="116" filterUnits="userSpaceOnUse" color-interpolation-filters="sRGB">
<feFlood flood-opacity="0" result="BackgroundImageFix"/>
<feColorMatrix in="SourceAlpha" type="matrix" values="0 0 0 0 0 0 0 0 0 0 0 0 0 0 0 0 0 0 127 0" result="hardAlpha"/>
<feOffset dy="14"/>
<feGaussianBlur stdDeviation="18"/>
<feComposite in2="hardAlpha" operator="out"/>
<feColorMatrix type="matrix" values="0 0 0 0 0.627451 0 0 0 0 1 0 0 0 0 0.0235294 0 0 0 0.18 0"/>
<feBlend mode="normal" in2="BackgroundImageFix" result="effect1_dropShadow_0_1"/>
<feBlend mode="normal" in="SourceGraphic" in2="effect1_dropShadow_0_1" result="shape"/>
</filter>
<filter id="filter1_d_0_1" x="-23.2425" y="-12.0518" width="67.8794" height="70.7896" filterUnits="userSpaceOnUse" color-interpolation-filters="sRGB">
<feFlood flood-opacity="0" result="BackgroundImageFix"/>
<feColorMatrix in="SourceAlpha" type="matrix" values="0 0 0 0 0 0 0 0 0 0 0 0 0 0 0 0 0 0 127 0" result="hardAlpha"/>
<feOffset dy="12.1438"/>
<feGaussianBlur stdDeviation="15.6134"/>
<feComposite in2="hardAlpha" operator="out"/>
<feColorMatrix type="matrix" values="0 0 0 0 0.0235294 0 0 0 0 0.584314 0 0 0 0 1 0 0 0 0.13 0"/>
<feBlend mode="normal" in2="BackgroundImageFix" result="effect1_dropShadow_0_1"/>
<feBlend mode="normal" in="SourceGraphic" in2="effect1_dropShadow_0_1" result="shape"/>
</filter>
<clipPath id="clip0_0_1">
<rect x="-373" y="-181.5" width="430" height="932" rx="20" fill="white"/>
</clipPath>
</defs>
</svg>
