<svg width="387" height="125" viewBox="0 0 387 125" fill="none" xmlns="http://www.w3.org/2000/svg">
<g filter="url(#filter0_d_368_8205)">
<rect x="36.6211" y="22.3789" width="314.213" height="52.5904" rx="16" fill="#A0FF06"/>
<rect x="37.108" y="22.8659" width="313.239" height="51.6165" rx="15.5131" stroke="white" stroke-opacity="0.05" stroke-width="0.973897"/>
</g>
<path d="M173.921 55.9225L172.441 54.4558C172.123 54.1406 171.61 54.1417 171.294 54.4583L170.813 54.9392C170.541 55.2108 170.101 55.2108 169.829 54.9392C169.56 54.67 169.426 54.3364 169.426 53.9384C169.426 53.5404 169.56 53.2067 169.829 52.9375L172.797 49.97C173.066 49.7008 173.4 49.5661 173.798 49.5661C174.196 49.5661 174.529 49.7008 174.799 49.97C175.07 50.2415 175.07 50.6818 174.799 50.9533L174.318 51.4342C174.001 51.7509 174 52.2639 174.315 52.5819L175.782 54.0613C175.922 54.2018 175.993 54.3656 175.993 54.5529C175.993 54.7402 175.922 54.9041 175.782 55.0446L174.904 55.9225C174.763 56.063 174.6 56.1333 174.412 56.1333C174.225 56.1333 174.061 56.063 173.921 55.9225ZM175.993 44.5585C175.993 44.7742 175.907 44.9811 175.754 45.1336L168.1 52.7878C168.058 52.8302 168.062 52.9 168.109 52.9375C168.378 53.2067 168.512 53.5404 168.512 53.9384C168.512 54.3364 168.378 54.67 168.109 54.9392C167.837 55.2108 167.397 55.2108 167.125 54.9392L166.644 54.4583C166.328 54.1417 165.815 54.1406 165.497 54.4558L164.017 55.9225C163.877 56.063 163.713 56.1333 163.526 56.1333C163.338 56.1333 163.174 56.063 163.034 55.9225L162.156 55.0446C162.016 54.9041 161.945 54.7402 161.945 54.5529C161.945 54.3656 162.016 54.2018 162.156 54.0613L163.623 52.5819C163.938 52.2639 163.937 51.7509 163.62 51.4342L163.139 50.9533C162.868 50.6818 162.868 50.2415 163.139 49.97C163.409 49.7008 163.742 49.5661 164.14 49.5661C164.538 49.5661 164.872 49.7008 165.141 49.97C165.179 50.0168 165.248 50.0207 165.291 49.9783L172.945 42.3241C173.097 42.1716 173.304 42.0859 173.52 42.0859H175.179C175.629 42.0859 175.993 42.4501 175.993 42.8992V44.5585ZM165.997 47.797C165.679 48.1146 165.165 48.1146 164.847 47.797L162.184 45.1336C162.031 44.9811 161.945 44.7742 161.945 44.5585V42.8992C161.945 42.4501 162.309 42.0859 162.759 42.0859H164.418C164.634 42.0859 164.84 42.1716 164.993 42.3241L167.656 44.9876C167.974 45.3052 167.974 45.8201 167.656 46.1377L165.997 47.797Z" fill="black"/>
<path d="M188.453 55.2457C187.608 55.2457 186.899 55.123 186.326 54.8776C185.763 54.6231 185.331 54.2958 185.031 53.8959C184.74 53.4869 184.586 53.0596 184.568 52.6143C184.568 52.5324 184.595 52.4643 184.649 52.4097C184.704 52.3552 184.772 52.3279 184.854 52.3279H186.067C186.186 52.3279 186.272 52.3552 186.326 52.4097C186.39 52.4552 186.445 52.5143 186.49 52.587C186.545 52.7597 186.649 52.9324 186.804 53.1051C186.958 53.2687 187.167 53.4051 187.431 53.5141C187.704 53.6232 188.044 53.6777 188.453 53.6777C189.108 53.6777 189.594 53.5687 189.912 53.3505C190.24 53.1324 190.403 52.8369 190.403 52.4643C190.403 52.2007 190.317 51.9916 190.144 51.8371C189.971 51.6735 189.703 51.528 189.34 51.4008C188.985 51.2644 188.513 51.1235 187.922 50.9781C187.24 50.8145 186.667 50.6191 186.204 50.3918C185.749 50.1555 185.404 49.8601 185.168 49.5056C184.94 49.1511 184.827 48.7011 184.827 48.1558C184.827 47.6285 184.968 47.1604 185.249 46.7514C185.54 46.3424 185.949 46.0197 186.476 45.7833C187.013 45.547 187.649 45.4288 188.385 45.4288C188.976 45.4288 189.499 45.5106 189.953 45.6743C190.408 45.8288 190.785 46.0379 191.085 46.3015C191.385 46.556 191.612 46.8332 191.767 47.1332C191.93 47.424 192.017 47.7104 192.026 47.9921C192.026 48.0649 191.998 48.133 191.944 48.1967C191.898 48.2512 191.83 48.2785 191.739 48.2785H190.471C190.399 48.2785 190.326 48.2603 190.253 48.2239C190.181 48.1876 190.121 48.1194 190.076 48.0194C190.021 47.7376 189.844 47.4967 189.544 47.2968C189.244 47.0968 188.858 46.9968 188.385 46.9968C187.894 46.9968 187.499 47.0877 187.199 47.2695C186.899 47.4513 186.749 47.7331 186.749 48.1148C186.749 48.3694 186.822 48.583 186.967 48.7557C187.122 48.9193 187.363 49.0647 187.69 49.192C188.026 49.3192 188.467 49.4556 189.012 49.601C189.785 49.7737 190.417 49.9737 190.908 50.2009C191.399 50.4282 191.758 50.719 191.985 51.0735C192.212 51.419 192.326 51.8598 192.326 52.3961C192.326 52.996 192.162 53.5096 191.835 53.9368C191.517 54.3549 191.067 54.6776 190.485 54.9049C189.903 55.1321 189.226 55.2457 188.453 55.2457ZM196.209 55.1094C196.118 55.1094 196.041 55.0776 195.977 55.0139C195.913 54.9503 195.881 54.873 195.881 54.7821V47.2422H193.359C193.268 47.2422 193.191 47.2104 193.127 47.1468C193.064 47.0832 193.032 47.0059 193.032 46.915V45.9061C193.032 45.8061 193.064 45.7243 193.127 45.6606C193.191 45.597 193.268 45.5652 193.359 45.5652H200.313C200.413 45.5652 200.494 45.597 200.558 45.6606C200.622 45.7243 200.654 45.8061 200.654 45.9061V46.915C200.654 47.0059 200.622 47.0832 200.558 47.1468C200.494 47.2104 200.413 47.2422 200.313 47.2422H197.804V54.7821C197.804 54.873 197.772 54.9503 197.708 55.0139C197.645 55.0776 197.563 55.1094 197.463 55.1094H196.209ZM200.452 55.1094C200.379 55.1094 200.311 55.0821 200.248 55.0276C200.193 54.973 200.166 54.9049 200.166 54.823C200.166 54.7867 200.175 54.7458 200.193 54.7003L203.479 45.9061C203.506 45.8152 203.556 45.7379 203.629 45.6743C203.711 45.6015 203.82 45.5652 203.956 45.5652H205.442C205.579 45.5652 205.683 45.6015 205.756 45.6743C205.829 45.7379 205.883 45.8152 205.92 45.9061L209.205 54.7003C209.215 54.7458 209.219 54.7867 209.219 54.823C209.219 54.9049 209.192 54.973 209.137 55.0276C209.083 55.0821 209.019 55.1094 208.946 55.1094H207.76C207.633 55.1094 207.538 55.0821 207.474 55.0276C207.419 54.9639 207.383 54.9049 207.365 54.8503L206.724 53.1869H202.675L202.034 54.8503C202.016 54.9049 201.975 54.9639 201.911 55.0276C201.856 55.0821 201.766 55.1094 201.638 55.1094H200.452ZM203.152 51.6189H206.247L204.692 47.4059L203.152 51.6189ZM210.819 55.1094C210.728 55.1094 210.651 55.0776 210.587 55.0139C210.524 54.9503 210.492 54.873 210.492 54.7821V45.9061C210.492 45.8061 210.524 45.7243 210.587 45.6606C210.651 45.597 210.728 45.5652 210.819 45.5652H214.351C215.45 45.5652 216.319 45.8197 216.955 46.3287C217.591 46.8377 217.909 47.5786 217.909 48.5512C217.909 49.2238 217.741 49.7828 217.405 50.2282C217.078 50.6736 216.637 50.9963 216.082 51.1963L218.073 54.6731C218.1 54.7276 218.114 54.7776 218.114 54.823C218.114 54.9049 218.082 54.973 218.018 55.0276C217.964 55.0821 217.9 55.1094 217.827 55.1094H216.587C216.432 55.1094 216.314 55.0685 216.232 54.9867C216.15 54.9049 216.087 54.823 216.041 54.7412L214.282 51.5099H212.387V54.7821C212.387 54.873 212.355 54.9503 212.292 55.0139C212.237 55.0776 212.16 55.1094 212.06 55.1094H210.819ZM212.387 49.9691H214.31C214.864 49.9691 215.278 49.8464 215.55 49.601C215.823 49.3465 215.959 48.992 215.959 48.5375C215.959 48.083 215.823 47.7285 215.55 47.474C215.287 47.2104 214.873 47.0786 214.31 47.0786H212.387V49.9691ZM221.986 55.1094C221.896 55.1094 221.818 55.0776 221.755 55.0139C221.691 54.9503 221.659 54.873 221.659 54.7821V47.2422H219.137C219.046 47.2422 218.969 47.2104 218.905 47.1468C218.841 47.0832 218.81 47.0059 218.81 46.915V45.9061C218.81 45.8061 218.841 45.7243 218.905 45.6606C218.969 45.597 219.046 45.5652 219.137 45.5652H226.09C226.19 45.5652 226.272 45.597 226.336 45.6606C226.4 45.7243 226.431 45.8061 226.431 45.9061V46.915C226.431 47.0059 226.4 47.0832 226.336 47.1468C226.272 47.2104 226.19 47.2422 226.09 47.2422H223.582V54.7821C223.582 54.873 223.55 54.9503 223.486 55.0139C223.423 55.0776 223.341 55.1094 223.241 55.1094H221.986Z" fill="black"/>
<defs>
<filter id="filter0_d_368_8205" x="0.621094" y="0.378906" width="386.215" height="124.59" filterUnits="userSpaceOnUse" color-interpolation-filters="sRGB">
<feFlood flood-opacity="0" result="BackgroundImageFix"/>
<feColorMatrix in="SourceAlpha" type="matrix" values="0 0 0 0 0 0 0 0 0 0 0 0 0 0 0 0 0 0 127 0" result="hardAlpha"/>
<feOffset dy="14"/>
<feGaussianBlur stdDeviation="18"/>
<feComposite in2="hardAlpha" operator="out"/>
<feColorMatrix type="matrix" values="0 0 0 0 0.627451 0 0 0 0 1 0 0 0 0 0.0235294 0 0 0 0.18 0"/>
<feBlend mode="normal" in2="BackgroundImageFix" result="effect1_dropShadow_368_8205"/>
<feBlend mode="normal" in="SourceGraphic" in2="effect1_dropShadow_368_8205" result="shape"/>
</filter>
</defs>
</svg>
