<svg width="308" height="126" viewBox="0 0 308 126" fill="none" xmlns="http://www.w3.org/2000/svg">
<g filter="url(#filter0_d_368_9602)">
<rect x="36.0156" y="22.7852" width="235.975" height="52.5904" rx="16" fill="#A0FF06"/>
<rect x="36.5026" y="23.2721" width="235.001" height="51.6165" rx="15.5131" stroke="white" stroke-opacity="0.05" stroke-width="0.973897"/>
</g>
<path d="M135.112 56.3288L133.633 54.8621C133.315 54.5468 132.802 54.5479 132.485 54.8646L132.004 55.3455C131.733 55.617 131.292 55.617 131.021 55.3455C130.752 55.0762 130.617 54.7426 130.617 54.3446C130.617 53.9466 130.752 53.613 131.021 53.3437L133.988 50.3762C134.258 50.107 134.591 49.9724 134.989 49.9724C135.387 49.9724 135.721 50.107 135.99 50.3762C136.262 50.6478 136.262 51.088 135.99 51.3596L135.509 51.8405C135.192 52.1571 135.191 52.6702 135.507 52.9882L136.973 54.4675C137.114 54.608 137.184 54.7719 137.184 54.9592C137.184 55.1465 137.114 55.3104 136.973 55.4508L136.095 56.3288C135.955 56.4693 135.791 56.5395 135.604 56.5395C135.416 56.5395 135.253 56.4693 135.112 56.3288ZM137.184 44.9648C137.184 45.1805 137.098 45.3873 136.946 45.5399L129.292 53.194C129.249 53.2364 129.253 53.3063 129.3 53.3437C129.569 53.613 129.704 53.9466 129.704 54.3446C129.704 54.7426 129.569 55.0762 129.3 55.3455C129.028 55.617 128.588 55.617 128.317 55.3455L127.836 54.8646C127.519 54.5479 127.006 54.5468 126.688 54.8621L125.209 56.3288C125.068 56.4693 124.904 56.5395 124.717 56.5395C124.53 56.5395 124.366 56.4693 124.225 56.3288L123.347 55.4508C123.207 55.3104 123.137 55.1465 123.137 54.9592C123.137 54.7719 123.207 54.608 123.347 54.4675L124.814 52.9882C125.129 52.6702 125.128 52.1571 124.812 51.8405L124.331 51.3596C124.059 51.088 124.059 50.6478 124.331 50.3762C124.6 50.107 124.934 49.9724 125.332 49.9724C125.73 49.9724 126.063 50.107 126.332 50.3762C126.37 50.4231 126.44 50.427 126.482 50.3845L134.136 42.7304C134.289 42.5779 134.496 42.4922 134.711 42.4922H136.371C136.82 42.4922 137.184 42.8563 137.184 43.3055V44.9648ZM127.189 48.2033C126.871 48.5209 126.356 48.5209 126.038 48.2033L123.375 45.5399C123.222 45.3873 123.137 45.1805 123.137 44.9648V43.3055C123.137 42.8563 123.501 42.4922 123.95 42.4922H125.609C125.825 42.4922 126.032 42.5779 126.184 42.7304L128.848 45.3938C129.165 45.7114 129.165 46.2264 128.848 46.544L127.189 48.2033Z" fill="black"/>
<path d="M149.645 55.652C148.8 55.652 148.091 55.5293 147.518 55.2838C146.954 55.0293 146.523 54.7021 146.223 54.3021C145.932 53.8931 145.777 53.4659 145.759 53.0205C145.759 52.9387 145.786 52.8705 145.841 52.816C145.895 52.7614 145.964 52.7342 146.045 52.7342H147.259C147.377 52.7342 147.463 52.7614 147.518 52.816C147.582 52.8614 147.636 52.9205 147.682 52.9932C147.736 53.1659 147.841 53.3386 147.995 53.5113C148.15 53.675 148.359 53.8113 148.622 53.9204C148.895 54.0295 149.236 54.084 149.645 54.084C150.299 54.084 150.786 53.9749 151.104 53.7568C151.431 53.5386 151.595 53.2432 151.595 52.8705C151.595 52.6069 151.508 52.3979 151.336 52.2433C151.163 52.0797 150.895 51.9343 150.531 51.807C150.177 51.6707 149.704 51.5298 149.113 51.3844C148.431 51.2207 147.859 51.0253 147.395 50.7981C146.941 50.5617 146.595 50.2663 146.359 49.9118C146.132 49.5573 146.018 49.1074 146.018 48.562C146.018 48.0348 146.159 47.5667 146.441 47.1576C146.732 46.7486 147.141 46.4259 147.668 46.1896C148.204 45.9533 148.84 45.8351 149.577 45.8351C150.168 45.8351 150.69 45.9169 151.145 46.0805C151.599 46.235 151.976 46.4441 152.276 46.7077C152.576 46.9622 152.804 47.2395 152.958 47.5394C153.122 47.8303 153.208 48.1166 153.217 48.3984C153.217 48.4711 153.19 48.5393 153.135 48.6029C153.09 48.6574 153.022 48.6847 152.931 48.6847H151.663C151.59 48.6847 151.517 48.6665 151.445 48.6302C151.372 48.5938 151.313 48.5256 151.267 48.4257C151.213 48.1439 151.036 47.903 150.736 47.703C150.436 47.5031 150.049 47.4031 149.577 47.4031C149.086 47.4031 148.69 47.494 148.391 47.6758C148.091 47.8576 147.941 48.1393 147.941 48.5211C147.941 48.7756 148.013 48.9892 148.159 49.1619C148.313 49.3255 148.554 49.471 148.881 49.5982C149.218 49.7255 149.659 49.8618 150.204 50.0073C150.977 50.18 151.608 50.3799 152.099 50.6072C152.59 50.8344 152.949 51.1253 153.176 51.4798C153.403 51.8252 153.517 52.2661 153.517 52.8023C153.517 53.4023 153.353 53.9158 153.026 54.3431C152.708 54.7612 152.258 55.0839 151.676 55.3111C151.095 55.5383 150.418 55.652 149.645 55.652ZM157.4 55.5156C157.309 55.5156 157.232 55.4838 157.168 55.4202C157.105 55.3566 157.073 55.2793 157.073 55.1884V47.6485H154.55C154.46 47.6485 154.382 47.6167 154.319 47.553C154.255 47.4894 154.223 47.4122 154.223 47.3213V46.3123C154.223 46.2123 154.255 46.1305 154.319 46.0669C154.382 46.0033 154.46 45.9714 154.55 45.9714H161.504C161.604 45.9714 161.686 46.0033 161.749 46.0669C161.813 46.1305 161.845 46.2123 161.845 46.3123V47.3213C161.845 47.4122 161.813 47.4894 161.749 47.553C161.686 47.6167 161.604 47.6485 161.504 47.6485H158.995V55.1884C158.995 55.2793 158.963 55.3566 158.9 55.4202C158.836 55.4838 158.754 55.5156 158.654 55.5156H157.4ZM161.644 55.5156C161.571 55.5156 161.503 55.4884 161.439 55.4338C161.384 55.3793 161.357 55.3111 161.357 55.2293C161.357 55.1929 161.366 55.152 161.384 55.1066L164.67 46.3123C164.698 46.2214 164.748 46.1441 164.82 46.0805C164.902 46.0078 165.011 45.9714 165.148 45.9714H166.634C166.77 45.9714 166.875 46.0078 166.947 46.0805C167.02 46.1441 167.075 46.2214 167.111 46.3123L170.397 55.1066C170.406 55.152 170.411 55.1929 170.411 55.2293C170.411 55.3111 170.383 55.3793 170.329 55.4338C170.274 55.4884 170.211 55.5156 170.138 55.5156H168.952C168.824 55.5156 168.729 55.4884 168.665 55.4338C168.611 55.3702 168.574 55.3111 168.556 55.2566L167.915 53.5932H163.866L163.225 55.2566C163.207 55.3111 163.166 55.3702 163.102 55.4338C163.048 55.4884 162.957 55.5156 162.83 55.5156H161.644ZM164.343 52.0252H167.438L165.884 47.8121L164.343 52.0252ZM172.011 55.5156C171.92 55.5156 171.843 55.4838 171.779 55.4202C171.715 55.3566 171.683 55.2793 171.683 55.1884V46.3123C171.683 46.2123 171.715 46.1305 171.779 46.0669C171.843 46.0033 171.92 45.9714 172.011 45.9714H175.542C176.642 45.9714 177.51 46.2259 178.146 46.735C178.782 47.244 179.101 47.9848 179.101 48.9574C179.101 49.63 178.932 50.1891 178.596 50.6345C178.269 51.0799 177.828 51.4025 177.274 51.6025L179.264 55.0793C179.292 55.1339 179.305 55.1839 179.305 55.2293C179.305 55.3111 179.273 55.3793 179.21 55.4338C179.155 55.4884 179.092 55.5156 179.019 55.5156H177.778C177.624 55.5156 177.505 55.4747 177.424 55.3929C177.342 55.3111 177.278 55.2293 177.233 55.1475L175.474 51.9161H173.579V55.1884C173.579 55.2793 173.547 55.3566 173.483 55.4202C173.429 55.4838 173.351 55.5156 173.251 55.5156H172.011ZM173.579 50.3754H175.501C176.056 50.3754 176.469 50.2527 176.742 50.0073C177.015 49.7528 177.151 49.3983 177.151 48.9438C177.151 48.4893 177.015 48.1348 176.742 47.8803C176.478 47.6167 176.065 47.4849 175.501 47.4849H173.579V50.3754ZM183.178 55.5156C183.087 55.5156 183.01 55.4838 182.946 55.4202C182.882 55.3566 182.851 55.2793 182.851 55.1884V47.6485H180.328C180.237 47.6485 180.16 47.6167 180.096 47.553C180.033 47.4894 180.001 47.4122 180.001 47.3213V46.3123C180.001 46.2123 180.033 46.1305 180.096 46.0669C180.16 46.0033 180.237 45.9714 180.328 45.9714H187.282C187.382 45.9714 187.464 46.0033 187.527 46.0669C187.591 46.1305 187.623 46.2123 187.623 46.3123V47.3213C187.623 47.4122 187.591 47.4894 187.527 47.553C187.464 47.6167 187.382 47.6485 187.282 47.6485H184.773V55.1884C184.773 55.2793 184.741 55.3566 184.678 55.4202C184.614 55.4838 184.532 55.5156 184.432 55.5156H183.178Z" fill="black"/>
<defs>
<filter id="filter0_d_368_9602" x="0.015625" y="0.785156" width="307.975" height="124.59" filterUnits="userSpaceOnUse" color-interpolation-filters="sRGB">
<feFlood flood-opacity="0" result="BackgroundImageFix"/>
<feColorMatrix in="SourceAlpha" type="matrix" values="0 0 0 0 0 0 0 0 0 0 0 0 0 0 0 0 0 0 127 0" result="hardAlpha"/>
<feOffset dy="14"/>
<feGaussianBlur stdDeviation="18"/>
<feComposite in2="hardAlpha" operator="out"/>
<feColorMatrix type="matrix" values="0 0 0 0 0.627451 0 0 0 0 1 0 0 0 0 0.0235294 0 0 0 0.18 0"/>
<feBlend mode="normal" in2="BackgroundImageFix" result="effect1_dropShadow_368_9602"/>
<feBlend mode="normal" in="SourceGraphic" in2="effect1_dropShadow_368_9602" result="shape"/>
</filter>
</defs>
</svg>
