<svg width="15" height="15" viewBox="0 0 15 15" fill="none" xmlns="http://www.w3.org/2000/svg">
<rect width="15" height="15" fill="#1B1B1B"/>
<g id="GAME">
<path d="M-585 -559C-585 -560.105 -584.105 -561 -583 -561H6384C6385.1 -561 6386 -560.105 6386 -559V2393C6386 2394.1 6385.1 2395 6384 2395H-583C-584.105 2395 -585 2394.1 -585 2393V-559Z" fill="#444444"/>
<path d="M-583 -560H6384V-562H-583V-560ZM6385 -559V2393H6387V-559H6385ZM6384 2394H-583V2396H6384V2394ZM-584 2393V-559H-586V2393H-584ZM-583 2394C-583.552 2394 -584 2393.55 -584 2393H-586C-586 2394.66 -584.657 2396 -583 2396V2394ZM6385 2393C6385 2393.55 6384.55 2394 6384 2394V2396C6385.66 2396 6387 2394.66 6387 2393H6385ZM6384 -560C6384.55 -560 6385 -559.552 6385 -559H6387C6387 -560.657 6385.66 -562 6384 -562V-560ZM-583 -562C-584.657 -562 -586 -560.657 -586 -559H-584C-584 -559.552 -583.552 -560 -583 -560V-562Z" fill="white" fill-opacity="0.1"/>
<g id="Referrals Link">
<g clip-path="url(#clip0_0_1)">
<rect x="-54" y="-293.5" width="430" height="932" rx="20" fill="black"/>
<g id="Group 48095948">
<g id="Rectangle 2">
<rect x="-28.8984" y="-18.5977" width="379.793" height="230.957" rx="22" fill="white" fill-opacity="0.05"/>
<rect x="-28.3984" y="-18.0977" width="378.793" height="229.957" rx="21.5" stroke="white" stroke-opacity="0.15"/>
</g>
<g id="Group 48095937">
<g id="Rectangle 11887">
<rect x="-11.9922" y="-3.88672" width="86.9277" height="22.5964" rx="10" fill="white" fill-opacity="0.05"/>
<rect x="-11.4922" y="-3.38672" width="85.9277" height="21.5964" rx="9.5" stroke="white" stroke-opacity="0.15"/>
</g>
<g id="tabler:clock">
<g id="Group">
<path id="Vector" d="M2.02344 7.42209C2.02344 8.10078 2.15712 8.77283 2.41684 9.39986C2.67657 10.0269 3.05725 10.5966 3.53716 11.0765C4.01707 11.5565 4.58681 11.9371 5.21384 12.1969C5.84087 12.4566 6.51292 12.5903 7.19162 12.5903C7.87031 12.5903 8.54236 12.4566 9.1694 12.1969C9.79643 11.9371 10.3662 11.5565 10.8461 11.0765C11.326 10.5966 11.7067 10.0269 11.9664 9.39986C12.2261 8.77283 12.3598 8.10078 12.3598 7.42209C12.3598 6.0514 11.8153 4.73685 10.8461 3.76763C9.87685 2.79841 8.56231 2.25391 7.19162 2.25391C5.82093 2.25391 4.50638 2.79841 3.53716 3.76763C2.56794 4.73685 2.02344 6.0514 2.02344 7.42209Z" stroke="white" stroke-width="1.24329" stroke-linecap="round" stroke-linejoin="round"/>
<path id="Vector_2" d="M7.19141 4.55078V7.42199L8.91413 9.14472" stroke="white" stroke-width="1.24329" stroke-linecap="round" stroke-linejoin="round"/>
</g>
</g>
</g>
<g id="Total Time Spend Reward" filter="url(#filter0_d_0_1)">
<path d="M-3.90037 50.7188C-4.10571 50.7188 -4.27371 50.6534 -4.40437 50.5227C-4.53504 50.3921 -4.60037 50.2241 -4.60037 50.0187V35.0107H-9.69637C-9.88304 35.0107 -10.0417 34.9454 -10.1724 34.8147C-10.303 34.6841 -10.3684 34.5254 -10.3684 34.3387V31.8187C-10.3684 31.6134 -10.303 31.4454 -10.1724 31.3147C-10.0417 31.1841 -9.88304 31.1187 -9.69637 31.1187H4.97563C5.18096 31.1187 5.34896 31.1841 5.47962 31.3147C5.61029 31.4454 5.67563 31.6134 5.67563 31.8187V34.3387C5.67563 34.5254 5.61029 34.6841 5.47962 34.8147C5.34896 34.9454 5.18096 35.0107 4.97563 35.0107H-0.0923742V50.0187C-0.0923742 50.2241 -0.157708 50.3921 -0.288374 50.5227C-0.419041 50.6534 -0.587041 50.7188 -0.792374 50.7188H-3.90037ZM15.8248 50.9988C14.1261 50.9988 12.6608 50.7188 11.4288 50.1587C10.1968 49.5987 9.23542 48.7587 8.54475 47.6387C7.85408 46.5001 7.48075 45.0721 7.42475 43.3547C7.40608 42.5521 7.39675 41.7587 7.39675 40.9747C7.39675 40.1721 7.40608 39.3601 7.42475 38.5387C7.48075 36.8587 7.85408 35.4494 8.54475 34.3107C9.25408 33.1534 10.2248 32.2854 11.4568 31.7067C12.7074 31.1281 14.1634 30.8387 15.8248 30.8387C17.4674 30.8387 18.9048 31.1281 20.1368 31.7067C21.3874 32.2854 22.3674 33.1534 23.0768 34.3107C23.7861 35.4494 24.1594 36.8587 24.1968 38.5387C24.2341 39.3601 24.2528 40.1721 24.2528 40.9747C24.2528 41.7587 24.2341 42.5521 24.1968 43.3547C24.1408 45.0721 23.7674 46.5001 23.0768 47.6387C22.3861 48.7587 21.4248 49.5987 20.1928 50.1587C18.9608 50.7188 17.5048 50.9988 15.8248 50.9988ZM15.8248 47.3867C16.9074 47.3867 17.7941 47.0601 18.4848 46.4067C19.1941 45.7347 19.5674 44.6707 19.6048 43.2147C19.6421 42.3934 19.6608 41.6281 19.6608 40.9187C19.6608 40.1907 19.6421 39.4254 19.6048 38.6227C19.5861 37.6521 19.4088 36.8587 19.0728 36.2427C18.7368 35.6267 18.2888 35.1787 17.7288 34.8988C17.1874 34.6001 16.5528 34.4507 15.8248 34.4507C15.0968 34.4507 14.4528 34.6001 13.8928 34.8988C13.3328 35.1787 12.8848 35.6267 12.5488 36.2427C12.2314 36.8587 12.0541 37.6521 12.0168 38.6227C11.9981 39.4254 11.9888 40.1907 11.9888 40.9187C11.9888 41.6281 11.9981 42.3934 12.0168 43.2147C12.0728 44.6707 12.4461 45.7347 13.1368 46.4067C13.8274 47.0601 14.7234 47.3867 15.8248 47.3867ZM32.4121 50.7188C32.2068 50.7188 32.0388 50.6534 31.9081 50.5227C31.7775 50.3921 31.7121 50.2241 31.7121 50.0187V35.0107H26.6161C26.4295 35.0107 26.2708 34.9454 26.1401 34.8147C26.0095 34.6841 25.9441 34.5254 25.9441 34.3387V31.8187C25.9441 31.6134 26.0095 31.4454 26.1401 31.3147C26.2708 31.1841 26.4295 31.1187 26.6161 31.1187H41.2881C41.4935 31.1187 41.6615 31.1841 41.7921 31.3147C41.9228 31.4454 41.9881 31.6134 41.9881 31.8187V34.3387C41.9881 34.5254 41.9228 34.6841 41.7921 34.8147C41.6615 34.9454 41.4935 35.0107 41.2881 35.0107H36.2201V50.0187C36.2201 50.2241 36.1548 50.3921 36.0241 50.5227C35.8935 50.6534 35.7255 50.7188 35.5201 50.7188H32.4121ZM41.5099 50.7188C41.3419 50.7188 41.2019 50.6627 41.0899 50.5507C40.9779 50.4201 40.9219 50.2801 40.9219 50.1307C40.9219 50.0374 40.9313 49.9534 40.9499 49.8787L47.6139 31.8747C47.6699 31.6694 47.7819 31.4921 47.9499 31.3427C48.1179 31.1934 48.3513 31.1187 48.6499 31.1187H52.2339C52.5326 31.1187 52.7659 31.1934 52.9339 31.3427C53.1019 31.4921 53.2139 31.6694 53.2699 31.8747L59.9339 49.8787C59.9526 49.9534 59.9619 50.0374 59.9619 50.1307C59.9619 50.2801 59.9059 50.4201 59.7939 50.5507C59.6819 50.6627 59.5419 50.7188 59.3739 50.7188H56.4619C56.1819 50.7188 55.9766 50.6534 55.8459 50.5227C55.7153 50.3921 55.6313 50.2707 55.5939 50.1587L54.3899 47.0228H46.4939L45.2899 50.1587C45.2526 50.2707 45.1686 50.3921 45.0379 50.5227C44.9073 50.6534 44.7019 50.7188 44.4219 50.7188H41.5099ZM47.5299 43.4107H53.3259L50.4419 35.3467L47.5299 43.4107ZM63.0728 50.7188C62.8674 50.7188 62.6994 50.6534 62.5688 50.5227C62.4381 50.3921 62.3728 50.2241 62.3728 50.0187V31.8187C62.3728 31.6134 62.4381 31.4454 62.5688 31.3147C62.6994 31.1841 62.8674 31.1187 63.0728 31.1187H66.1808C66.3861 31.1187 66.5541 31.1841 66.6848 31.3147C66.8154 31.4454 66.8808 31.6134 66.8808 31.8187V46.9667H75.5608C75.7661 46.9667 75.9341 47.0321 76.0648 47.1627C76.1954 47.2934 76.2608 47.4614 76.2608 47.6667V50.0187C76.2608 50.2241 76.1954 50.3921 76.0648 50.5227C75.9341 50.6534 75.7661 50.7188 75.5608 50.7188H63.0728ZM88.6856 50.7188C88.4802 50.7188 88.3122 50.6534 88.1816 50.5227C88.0509 50.3921 87.9856 50.2241 87.9856 50.0187V35.0107H82.8896C82.7029 35.0107 82.5442 34.9454 82.4136 34.8147C82.2829 34.6841 82.2176 34.5254 82.2176 34.3387V31.8187C82.2176 31.6134 82.2829 31.4454 82.4136 31.3147C82.5442 31.1841 82.7029 31.1187 82.8896 31.1187H97.5616C97.7669 31.1187 97.9349 31.1841 98.0656 31.3147C98.1962 31.4454 98.2616 31.6134 98.2616 31.8187V34.3387C98.2616 34.5254 98.1962 34.6841 98.0656 34.8147C97.9349 34.9454 97.7669 35.0107 97.5616 35.0107H92.4936V50.0187C92.4936 50.2241 92.4282 50.3921 92.2976 50.5227C92.1669 50.6534 91.9989 50.7188 91.7936 50.7188H88.6856ZM101.655 50.7188C101.449 50.7188 101.281 50.6534 101.151 50.5227C101.02 50.3921 100.955 50.2241 100.955 50.0187V31.8187C100.955 31.6134 101.02 31.4454 101.151 31.3147C101.281 31.1841 101.449 31.1187 101.655 31.1187H104.819C105.024 31.1187 105.192 31.1841 105.323 31.3147C105.453 31.4454 105.519 31.6134 105.519 31.8187V50.0187C105.519 50.2241 105.453 50.3921 105.323 50.5227C105.192 50.6534 105.024 50.7188 104.819 50.7188H101.655ZM110.35 50.7188C110.163 50.7188 109.995 50.6534 109.846 50.5227C109.715 50.3921 109.65 50.2241 109.65 50.0187V31.8187C109.65 31.6134 109.715 31.4454 109.846 31.3147C109.995 31.1841 110.163 31.1187 110.35 31.1187H112.954C113.234 31.1187 113.439 31.1934 113.57 31.3427C113.719 31.4921 113.822 31.6041 113.878 31.6787L119.03 41.1707L124.238 31.6787C124.275 31.6041 124.359 31.4921 124.49 31.3427C124.639 31.1934 124.854 31.1187 125.134 31.1187H127.738C127.943 31.1187 128.111 31.1841 128.242 31.3147C128.373 31.4454 128.438 31.6134 128.438 31.8187V50.0187C128.438 50.2241 128.373 50.3921 128.242 50.5227C128.111 50.6534 127.943 50.7188 127.738 50.7188H124.882C124.695 50.7188 124.537 50.6534 124.406 50.5227C124.275 50.3921 124.21 50.2241 124.21 50.0187V38.7067L120.654 45.3707C120.561 45.5387 120.439 45.6881 120.29 45.8187C120.141 45.9494 119.945 46.0147 119.702 46.0147H118.386C118.143 46.0147 117.947 45.9494 117.798 45.8187C117.649 45.6881 117.527 45.5387 117.434 45.3707L113.878 38.7067V50.0187C113.878 50.2241 113.813 50.3921 113.682 50.5227C113.551 50.6534 113.393 50.7188 113.206 50.7188H110.35ZM133.292 50.7188C133.086 50.7188 132.918 50.6534 132.788 50.5227C132.657 50.3921 132.592 50.2241 132.592 50.0187V31.8187C132.592 31.6134 132.657 31.4454 132.788 31.3147C132.918 31.1841 133.086 31.1187 133.292 31.1187H145.976C146.181 31.1187 146.349 31.1841 146.48 31.3147C146.61 31.4454 146.676 31.6134 146.676 31.8187V34.0587C146.676 34.2454 146.61 34.4041 146.48 34.5347C146.349 34.6654 146.181 34.7307 145.976 34.7307H136.904V39.1267H145.36C145.565 39.1267 145.733 39.1921 145.864 39.3227C145.994 39.4534 146.06 39.6214 146.06 39.8267V41.8987C146.06 42.0854 145.994 42.2441 145.864 42.3747C145.733 42.5054 145.565 42.5707 145.36 42.5707H136.904V47.1067H146.2C146.405 47.1067 146.573 47.1721 146.704 47.3027C146.834 47.4334 146.9 47.6014 146.9 47.8067V50.0187C146.9 50.2241 146.834 50.3921 146.704 50.5227C146.573 50.6534 146.405 50.7188 146.2 50.7188H133.292ZM-1.85637 78.9988C-3.64837 78.9988 -5.15104 78.7374 -6.36437 78.2147C-7.55904 77.6921 -8.46437 77.0107 -9.08037 76.1707C-9.69637 75.3307 -10.023 74.4347 -10.0604 73.4827C-10.0604 73.3334 -10.0044 73.2027 -9.89237 73.0907C-9.78037 72.9601 -9.64037 72.8947 -9.47237 72.8947H-6.47637C-6.23371 72.8947 -6.04704 72.9507 -5.91637 73.0627C-5.78571 73.1561 -5.66437 73.2774 -5.55237 73.4267C-5.42171 73.7441 -5.21637 74.0521 -4.93637 74.3507C-4.63771 74.6494 -4.23637 74.9014 -3.73237 75.1067C-3.22837 75.2934 -2.60304 75.3867 -1.85637 75.3867C-0.643041 75.3867 0.262292 75.1907 0.859625 74.7987C1.47563 74.4067 1.78363 73.8747 1.78363 73.2027C1.78363 72.7174 1.61563 72.3254 1.27963 72.0267C0.962293 71.7281 0.448959 71.4574 -0.260375 71.2147C-0.951041 70.9721 -1.87504 70.7107 -3.03237 70.4307C-4.43237 70.1321 -5.62704 69.7494 -6.61637 69.2827C-7.58704 68.7974 -8.32437 68.1814 -8.82837 67.4347C-9.31371 66.6694 -9.55637 65.7267 -9.55637 64.6067C-9.55637 63.4867 -9.24837 62.4974 -8.63237 61.6387C-8.01637 60.7614 -7.14837 60.0801 -6.02837 59.5947C-4.90837 59.0907 -3.57371 58.8387 -2.02437 58.8387C-0.773708 58.8387 0.327626 59.0067 1.27963 59.3427C2.25029 59.6787 3.05296 60.1174 3.68763 60.6587C4.34096 61.2001 4.83563 61.7787 5.17163 62.3947C5.50763 63.0107 5.68496 63.6081 5.70363 64.1867C5.70363 64.3361 5.64763 64.4761 5.53563 64.6067C5.42363 64.7187 5.28363 64.7747 5.11563 64.7747H1.97963C1.79296 64.7747 1.62496 64.7374 1.47563 64.6627C1.32629 64.5881 1.20496 64.4574 1.11163 64.2707C0.999626 63.7854 0.663626 63.3654 0.103626 63.0107C-0.437708 62.6374 -1.14704 62.4507 -2.02437 62.4507C-2.93904 62.4507 -3.66704 62.6187 -4.20837 62.9547C-4.73104 63.2907 -4.99237 63.8041 -4.99237 64.4947C-4.99237 64.9427 -4.86171 65.3254 -4.60037 65.6427C-4.32037 65.9414 -3.86304 66.2121 -3.22837 66.4547C-2.57504 66.6787 -1.71637 66.9307 -0.652375 67.2107C0.990292 67.5467 2.32496 67.9481 3.35163 68.4147C4.37829 68.8814 5.13429 69.4881 5.61963 70.2347C6.10496 70.9627 6.34763 71.8867 6.34763 73.0067C6.34763 74.2574 5.99296 75.3307 5.28363 76.2267C4.59296 77.1227 3.63163 77.8134 2.39963 78.2987C1.18629 78.7654 -0.232375 78.9988 -1.85637 78.9988ZM10.0533 78.7188C9.84792 78.7188 9.67992 78.6534 9.54925 78.5227C9.41858 78.3921 9.35325 78.2241 9.35325 78.0187V59.8187C9.35325 59.6134 9.41858 59.4454 9.54925 59.3147C9.67992 59.1841 9.84792 59.1187 10.0533 59.1187H17.6973C19.2093 59.1187 20.5159 59.3521 21.6173 59.8187C22.7373 60.2854 23.6053 60.9947 24.2213 61.9467C24.8559 62.8801 25.1733 64.0467 25.1733 65.4467C25.1733 66.8654 24.8559 68.0414 24.2213 68.9747C23.6053 69.8894 22.7373 70.5707 21.6173 71.0187C20.5159 71.4667 19.2093 71.6907 17.6973 71.6907H13.9453V78.0187C13.9453 78.2241 13.8799 78.3921 13.7493 78.5227C13.6186 78.6534 13.4506 78.7188 13.2453 78.7188H10.0533ZM13.8613 68.2187H17.5573C18.5093 68.2187 19.2466 67.9854 19.7693 67.5187C20.3106 67.0521 20.5813 66.3521 20.5813 65.4187C20.5813 64.5974 20.3386 63.9254 19.8533 63.4027C19.3866 62.8801 18.6213 62.6187 17.5573 62.6187H13.8613V68.2187ZM28.729 78.7188C28.5237 78.7188 28.3557 78.6534 28.225 78.5227C28.0944 78.3921 28.029 78.2241 28.029 78.0187V59.8187C28.029 59.6134 28.0944 59.4454 28.225 59.3147C28.3557 59.1841 28.5237 59.1187 28.729 59.1187H41.413C41.6184 59.1187 41.7864 59.1841 41.917 59.3147C42.0477 59.4454 42.113 59.6134 42.113 59.8187V62.0587C42.113 62.2454 42.0477 62.4041 41.917 62.5347C41.7864 62.6654 41.6184 62.7307 41.413 62.7307H32.341V67.1267H40.797C41.0024 67.1267 41.1704 67.1921 41.301 67.3227C41.4317 67.4534 41.497 67.6214 41.497 67.8267V69.8987C41.497 70.0854 41.4317 70.2441 41.301 70.3747C41.1704 70.5054 41.0024 70.5707 40.797 70.5707H32.341V75.1067H41.637C41.8424 75.1067 42.0104 75.1721 42.141 75.3027C42.2717 75.4334 42.337 75.6014 42.337 75.8067V78.0187C42.337 78.2241 42.2717 78.3921 42.141 78.5227C42.0104 78.6534 41.8424 78.7188 41.637 78.7188H28.729ZM46.3658 78.7188C46.1604 78.7188 45.9924 78.6534 45.8618 78.5227C45.7311 78.3921 45.6658 78.2241 45.6658 78.0187V59.8187C45.6658 59.6134 45.7311 59.4454 45.8618 59.3147C45.9924 59.1841 46.1604 59.1187 46.3658 59.1187H48.9138C49.1938 59.1187 49.3991 59.1841 49.5298 59.3147C49.6604 59.4454 49.7444 59.5481 49.7818 59.6227L57.2578 71.2987V59.8187C57.2578 59.6134 57.3231 59.4454 57.4538 59.3147C57.5844 59.1841 57.7431 59.1187 57.9298 59.1187H60.7858C60.9911 59.1187 61.1591 59.1841 61.2898 59.3147C61.4204 59.4454 61.4858 59.6134 61.4858 59.8187V78.0187C61.4858 78.2054 61.4204 78.3734 61.2898 78.5227C61.1591 78.6534 60.9911 78.7188 60.7858 78.7188H58.2098C57.9298 78.7188 57.7244 78.6534 57.5938 78.5227C57.4818 78.3734 57.3978 78.2707 57.3418 78.2147L49.8938 66.9027V78.0187C49.8938 78.2241 49.8284 78.3921 49.6978 78.5227C49.5671 78.6534 49.3991 78.7188 49.1938 78.7188H46.3658ZM66.3267 78.7188C66.1214 78.7188 65.9534 78.6534 65.8227 78.5227C65.692 78.3921 65.6267 78.2241 65.6267 78.0187V59.8187C65.6267 59.6134 65.692 59.4454 65.8227 59.3147C65.9534 59.1841 66.1214 59.1187 66.3267 59.1187H73.3547C75.2214 59.1187 76.78 59.4174 78.0307 60.0147C79.2814 60.5934 80.2334 61.4521 80.8867 62.5907C81.5587 63.7107 81.9134 65.1014 81.9507 66.7627C81.9694 67.5841 81.9787 68.3027 81.9787 68.9187C81.9787 69.5347 81.9694 70.2441 81.9507 71.0467C81.8947 72.7827 81.5494 74.2201 80.9147 75.3587C80.28 76.4974 79.3467 77.3467 78.1147 77.9067C76.8827 78.4481 75.3427 78.7188 73.4947 78.7188H66.3267ZM70.0787 75.1067H73.3547C74.288 75.1067 75.0534 74.9667 75.6507 74.6867C76.248 74.4067 76.6867 73.9681 76.9667 73.3707C77.2654 72.7547 77.424 71.9614 77.4427 70.9907C77.4614 70.4494 77.4707 69.9641 77.4707 69.5347C77.4894 69.1054 77.4894 68.6761 77.4707 68.2467C77.4707 67.8174 77.4614 67.3414 77.4427 66.8187C77.4054 65.4187 77.0414 64.3921 76.3507 63.7387C75.6787 63.0667 74.6334 62.7307 73.2147 62.7307H70.0787V75.1067Z" fill="white"/>
<path d="M92.3579 78.7188C92.1526 78.7188 91.9846 78.6534 91.8539 78.5227C91.7233 78.3921 91.6579 78.2241 91.6579 78.0187V59.8187C91.6579 59.6134 91.7233 59.4454 91.8539 59.3147C91.9846 59.1841 92.1526 59.1187 92.3579 59.1187H99.7779C102.111 59.1187 103.95 59.6601 105.294 60.7427C106.638 61.8067 107.31 63.3467 107.31 65.3627C107.31 66.7254 106.983 67.8641 106.33 68.7787C105.677 69.6934 104.799 70.3747 103.698 70.8227L107.646 77.8227C107.702 77.9347 107.73 78.0374 107.73 78.1307C107.73 78.2801 107.674 78.4201 107.562 78.5507C107.45 78.6627 107.31 78.7188 107.142 78.7188H104.034C103.698 78.7188 103.446 78.6347 103.278 78.4667C103.11 78.2801 102.989 78.1121 102.914 77.9627L99.4979 71.5507H96.1099V78.0187C96.1099 78.2241 96.0446 78.3921 95.9139 78.5227C95.7833 78.6534 95.6153 78.7188 95.4099 78.7188H92.3579ZM96.1099 67.9947H99.6939C100.721 67.9947 101.477 67.7614 101.962 67.2947C102.466 66.8281 102.718 66.1747 102.718 65.3347C102.718 64.4947 102.475 63.8321 101.99 63.3467C101.505 62.8614 100.739 62.6187 99.6939 62.6187H96.1099V67.9947ZM111.444 78.7188C111.239 78.7188 111.071 78.6534 110.94 78.5227C110.809 78.3921 110.744 78.2241 110.744 78.0187V59.8187C110.744 59.6134 110.809 59.4454 110.94 59.3147C111.071 59.1841 111.239 59.1187 111.444 59.1187H124.128C124.333 59.1187 124.501 59.1841 124.632 59.3147C124.763 59.4454 124.828 59.6134 124.828 59.8187V62.0587C124.828 62.2454 124.763 62.4041 124.632 62.5347C124.501 62.6654 124.333 62.7307 124.128 62.7307H115.056V67.1267H123.512C123.717 67.1267 123.885 67.1921 124.016 67.3227C124.147 67.4534 124.212 67.6214 124.212 67.8267V69.8987C124.212 70.0854 124.147 70.2441 124.016 70.3747C123.885 70.5054 123.717 70.5707 123.512 70.5707H115.056V75.1067H124.352C124.557 75.1067 124.725 75.1721 124.856 75.3027C124.987 75.4334 125.052 75.6014 125.052 75.8067V78.0187C125.052 78.2241 124.987 78.3921 124.856 78.5227C124.725 78.6534 124.557 78.7188 124.352 78.7188H111.444ZM131.573 78.7188C131.274 78.7188 131.031 78.6347 130.845 78.4667C130.677 78.2987 130.574 78.0934 130.537 77.8507L127.345 59.9027C127.326 59.8654 127.317 59.8281 127.317 59.7907C127.317 59.7534 127.317 59.7254 127.317 59.7067C127.317 59.5574 127.373 59.4267 127.485 59.3147C127.597 59.1841 127.737 59.1187 127.905 59.1187H130.845C131.33 59.1187 131.601 59.3147 131.657 59.7067L133.757 71.5507L136.025 64.1867C136.081 64.0374 136.174 63.8787 136.305 63.7107C136.435 63.5427 136.65 63.4587 136.949 63.4587H138.713C139.011 63.4587 139.226 63.5427 139.357 63.7107C139.487 63.8787 139.571 64.0374 139.609 64.1867L141.905 71.5228L143.977 59.7067C144.033 59.3147 144.313 59.1187 144.817 59.1187H147.757C147.925 59.1187 148.065 59.1841 148.177 59.3147C148.289 59.4267 148.345 59.5574 148.345 59.7067C148.345 59.7254 148.345 59.7534 148.345 59.7907C148.345 59.8281 148.335 59.8654 148.317 59.9027L145.125 77.8507C145.087 78.0934 144.975 78.2987 144.789 78.4667C144.621 78.6347 144.387 78.7188 144.089 78.7188H141.821C141.522 78.7188 141.289 78.6441 141.121 78.4947C140.971 78.3267 140.869 78.1587 140.813 77.9907L137.817 69.3107L134.849 77.9907C134.793 78.1587 134.681 78.3267 134.513 78.4947C134.363 78.6441 134.13 78.7188 133.813 78.7188H131.573ZM149.49 78.7188C149.322 78.7188 149.182 78.6627 149.07 78.5507C148.958 78.4201 148.902 78.2801 148.902 78.1307C148.902 78.0374 148.912 77.9534 148.93 77.8787L155.594 59.8747C155.65 59.6694 155.762 59.4921 155.93 59.3427C156.098 59.1934 156.332 59.1187 156.63 59.1187H160.214C160.513 59.1187 160.746 59.1934 160.914 59.3427C161.082 59.4921 161.194 59.6694 161.25 59.8747L167.914 77.8787C167.933 77.9534 167.942 78.0374 167.942 78.1307C167.942 78.2801 167.886 78.4201 167.774 78.5507C167.662 78.6627 167.522 78.7188 167.354 78.7188H164.442C164.162 78.7188 163.957 78.6534 163.826 78.5227C163.696 78.3921 163.612 78.2707 163.574 78.1587L162.37 75.0228H154.474L153.27 78.1587C153.233 78.2707 153.149 78.3921 153.018 78.5227C152.888 78.6534 152.682 78.7188 152.402 78.7188H149.49ZM155.51 71.4107H161.306L158.422 63.3467L155.51 71.4107ZM171.053 78.7188C170.848 78.7188 170.68 78.6534 170.549 78.5227C170.419 78.3921 170.353 78.2241 170.353 78.0187V59.8187C170.353 59.6134 170.419 59.4454 170.549 59.3147C170.68 59.1841 170.848 59.1187 171.053 59.1187H178.473C180.807 59.1187 182.645 59.6601 183.989 60.7427C185.333 61.8067 186.005 63.3467 186.005 65.3627C186.005 66.7254 185.679 67.8641 185.025 68.7787C184.372 69.6934 183.495 70.3747 182.393 70.8227L186.341 77.8227C186.397 77.9347 186.425 78.0374 186.425 78.1307C186.425 78.2801 186.369 78.4201 186.257 78.5507C186.145 78.6627 186.005 78.7188 185.837 78.7188H182.729C182.393 78.7188 182.141 78.6347 181.973 78.4667C181.805 78.2801 181.684 78.1121 181.609 77.9627L178.193 71.5507H174.805V78.0187C174.805 78.2241 174.74 78.3921 174.609 78.5227C174.479 78.6534 174.311 78.7188 174.105 78.7188H171.053ZM174.805 67.9947H178.389C179.416 67.9947 180.172 67.7614 180.657 67.2947C181.161 66.8281 181.413 66.1747 181.413 65.3347C181.413 64.4947 181.171 63.8321 180.685 63.3467C180.2 62.8614 179.435 62.6187 178.389 62.6187H174.805V67.9947ZM190.139 78.7188C189.934 78.7188 189.766 78.6534 189.635 78.5227C189.505 78.3921 189.439 78.2241 189.439 78.0187V59.8187C189.439 59.6134 189.505 59.4454 189.635 59.3147C189.766 59.1841 189.934 59.1187 190.139 59.1187H197.167C199.034 59.1187 200.593 59.4174 201.843 60.0147C203.094 60.5934 204.046 61.4521 204.699 62.5907C205.371 63.7107 205.726 65.1014 205.763 66.7627C205.782 67.5841 205.791 68.3027 205.791 68.9187C205.791 69.5347 205.782 70.2441 205.763 71.0467C205.707 72.7827 205.362 74.2201 204.727 75.3587C204.093 76.4974 203.159 77.3467 201.927 77.9067C200.695 78.4481 199.155 78.7188 197.307 78.7188H190.139ZM193.891 75.1067H197.167C198.101 75.1067 198.866 74.9667 199.463 74.6867C200.061 74.4067 200.499 73.9681 200.779 73.3707C201.078 72.7547 201.237 71.9614 201.255 70.9907C201.274 70.4494 201.283 69.9641 201.283 69.5347C201.302 69.1054 201.302 68.6761 201.283 68.2467C201.283 67.8174 201.274 67.3414 201.255 66.8187C201.218 65.4187 200.854 64.3921 200.163 63.7387C199.491 63.0667 198.446 62.7307 197.027 62.7307H193.891V75.1067Z" fill="#A0FF06"/>
</g>
</g>
</g>
</g>
</g>
<defs>
<filter id="filter0_d_0_1" x="-46.3672" y="8.83984" width="288.16" height="120.16" filterUnits="userSpaceOnUse" color-interpolation-filters="sRGB">
<feFlood flood-opacity="0" result="BackgroundImageFix"/>
<feColorMatrix in="SourceAlpha" type="matrix" values="0 0 0 0 0 0 0 0 0 0 0 0 0 0 0 0 0 0 127 0" result="hardAlpha"/>
<feOffset dy="14"/>
<feGaussianBlur stdDeviation="18"/>
<feComposite in2="hardAlpha" operator="out"/>
<feColorMatrix type="matrix" values="0 0 0 0 0.0235294 0 0 0 0 0.584314 0 0 0 0 1 0 0 0 0.13 0"/>
<feBlend mode="normal" in2="BackgroundImageFix" result="effect1_dropShadow_0_1"/>
<feBlend mode="normal" in="SourceGraphic" in2="effect1_dropShadow_0_1" result="shape"/>
</filter>
<clipPath id="clip0_0_1">
<rect x="-54" y="-293.5" width="430" height="932" rx="20" fill="white"/>
</clipPath>
</defs>
</svg>
