<svg width="153" height="54" viewBox="0 0 153 54" fill="none" xmlns="http://www.w3.org/2000/svg">
<rect x="0.691406" y="0.933594" width="151.612" height="52.5904" rx="16" fill="white" fill-opacity="0.05"/>
<rect x="1.17835" y="1.42054" width="150.639" height="51.6165" rx="15.5131" stroke="white" stroke-opacity="0.15" stroke-width="0.973897"/>
<path d="M34.8438 26.415L41.4997 20.1094L48.1556 26.415H43.9518V32.7206H39.0475V26.415H34.8438Z" fill="white" stroke="white" stroke-width="1.40124" stroke-linecap="round" stroke-linejoin="round"/>
<path d="M59.7985 32.3668C59.0077 32.3668 58.3214 32.235 57.7397 31.9714C57.158 31.6987 56.708 31.2851 56.3899 30.7307C56.0717 30.1671 55.9127 29.449 55.9127 28.5764V23.0271C55.9127 22.9272 55.9445 22.8454 56.0081 22.7817C56.0717 22.7181 56.149 22.6863 56.2399 22.6863H57.4806C57.5806 22.6863 57.6579 22.7181 57.7124 22.7817C57.7761 22.8454 57.8079 22.9272 57.8079 23.0271V28.5764C57.8079 29.3218 57.9851 29.8762 58.3396 30.2398C58.6941 30.5943 59.1804 30.7716 59.7985 30.7716C60.4166 30.7716 60.8984 30.5943 61.2438 30.2398C61.5983 29.8762 61.7755 29.3218 61.7755 28.5764V23.0271C61.7755 22.9272 61.8073 22.8454 61.871 22.7817C61.9346 22.7181 62.0164 22.6863 62.1164 22.6863H63.3435C63.4435 22.6863 63.5207 22.7181 63.5753 22.7817C63.6389 22.8454 63.6707 22.9272 63.6707 23.0271V28.5764C63.6707 29.449 63.5117 30.1671 63.1935 30.7307C62.8845 31.2851 62.4391 31.6987 61.8573 31.9714C61.2847 32.235 60.5984 32.3668 59.7985 32.3668ZM66.0417 32.2305C65.9508 32.2305 65.8735 32.1987 65.8099 32.135C65.7462 32.0714 65.7144 31.9941 65.7144 31.9032V23.0271C65.7144 22.9272 65.7462 22.8454 65.8099 22.7817C65.8735 22.7181 65.9508 22.6863 66.0417 22.6863H69.6957C70.4047 22.6863 71.0228 22.7999 71.55 23.0271C72.0772 23.2453 72.4862 23.5816 72.7771 24.0361C73.068 24.4815 73.2134 25.0405 73.2134 25.7132C73.2134 26.3949 73.068 26.9584 72.7771 27.4038C72.4862 27.8401 72.0772 28.1674 71.55 28.3855C71.0228 28.6037 70.4047 28.7128 69.6957 28.7128H67.6642V31.9032C67.6642 31.9941 67.6323 32.0714 67.5687 32.135C67.5142 32.1987 67.4369 32.2305 67.3369 32.2305H66.0417ZM67.6369 27.1993H69.6275C70.1547 27.1993 70.5592 27.0766 70.841 26.8312C71.1228 26.5767 71.2637 26.204 71.2637 25.7132C71.2637 25.2587 71.1319 24.8951 70.8683 24.6224C70.6047 24.3406 70.1911 24.1997 69.6275 24.1997H67.6369V27.1993ZM78.4106 32.3668C77.5744 32.3668 76.8608 32.2214 76.27 31.9305C75.6883 31.6396 75.2338 31.2215 74.9066 30.6761C74.5884 30.1217 74.4157 29.4627 74.3884 28.6991C74.3794 28.3083 74.3748 27.8901 74.3748 27.4447C74.3748 26.9903 74.3794 26.563 74.3884 26.1631C74.4157 25.4086 74.5884 24.7633 74.9066 24.227C75.2338 23.6907 75.6928 23.2771 76.2836 22.9862C76.8836 22.6954 77.5926 22.5499 78.4106 22.5499C79.0742 22.5499 79.6559 22.6408 80.1559 22.8226C80.6558 22.9953 81.0694 23.2226 81.3966 23.5044C81.7329 23.777 81.9829 24.0725 82.1465 24.3906C82.3192 24.7087 82.4101 25.0042 82.4192 25.2768C82.4283 25.3587 82.4056 25.4268 82.351 25.4814C82.2965 25.5359 82.2238 25.5632 82.1329 25.5632H80.7285C80.6376 25.5632 80.5694 25.545 80.524 25.5086C80.4785 25.4723 80.4376 25.4177 80.4013 25.345C80.3286 25.1541 80.2149 24.9678 80.0604 24.786C79.9059 24.5951 79.6968 24.436 79.4332 24.3088C79.1696 24.1815 78.8288 24.1179 78.4106 24.1179C77.7925 24.1179 77.2972 24.2815 76.9245 24.6088C76.5609 24.936 76.3655 25.4768 76.3382 26.2313C76.3109 27.0221 76.3109 27.822 76.3382 28.6309C76.3655 29.4036 76.5654 29.958 76.9381 30.2944C77.3199 30.6307 77.8198 30.7988 78.4379 30.7988C78.8469 30.7988 79.2105 30.7261 79.5287 30.5807C79.8559 30.4353 80.1104 30.208 80.2922 29.899C80.4831 29.5899 80.5785 29.1945 80.5785 28.7128V28.2901H78.9151C78.8242 28.2901 78.747 28.2583 78.6833 28.1946C78.6197 28.131 78.5879 28.0492 78.5879 27.9492V27.2266C78.5879 27.1266 78.6197 27.0448 78.6833 26.9812C78.747 26.9175 78.8242 26.8857 78.9151 26.8857H82.1738C82.2738 26.8857 82.351 26.9175 82.4056 26.9812C82.4692 27.0448 82.501 27.1266 82.501 27.2266V28.6582C82.501 29.4218 82.3328 30.0808 81.9965 30.6352C81.6693 31.1897 81.1966 31.6169 80.5785 31.9169C79.9695 32.2168 79.2469 32.3668 78.4106 32.3668ZM84.5761 32.2305C84.4852 32.2305 84.408 32.1987 84.3443 32.135C84.2807 32.0714 84.2489 31.9941 84.2489 31.9032V23.0271C84.2489 22.9272 84.2807 22.8454 84.3443 22.7817C84.408 22.7181 84.4852 22.6863 84.5761 22.6863H88.1075C89.2073 22.6863 90.0754 22.9408 90.7117 23.4498C91.3479 23.9588 91.6661 24.6997 91.6661 25.6722C91.6661 26.3449 91.4979 26.9039 91.1616 27.3493C90.8344 27.7947 90.3935 28.1174 89.8391 28.3174L91.8297 31.7942C91.857 31.8487 91.8706 31.8987 91.8706 31.9441C91.8706 32.026 91.8388 32.0941 91.7752 32.1487C91.7206 32.2032 91.657 32.2305 91.5843 32.2305H90.3435C90.189 32.2305 90.0708 32.1896 89.989 32.1078C89.9072 32.026 89.8436 31.9441 89.7982 31.8623L88.0393 28.6309H86.1441V31.9032C86.1441 31.9941 86.1123 32.0714 86.0487 32.135C85.9941 32.1987 85.9169 32.2305 85.8169 32.2305H84.5761ZM86.1441 27.0902H88.0666C88.621 27.0902 89.0346 26.9675 89.3073 26.7221C89.58 26.4676 89.7163 26.1131 89.7163 25.6586C89.7163 25.2041 89.58 24.8496 89.3073 24.5951C89.0437 24.3315 88.6301 24.1997 88.0666 24.1997H86.1441V27.0902ZM92.8366 32.2305C92.7639 32.2305 92.6957 32.2032 92.6321 32.1487C92.5776 32.0941 92.5503 32.026 92.5503 31.9441C92.5503 31.9078 92.5594 31.8669 92.5776 31.8214L95.8635 23.0271C95.8908 22.9362 95.9408 22.859 96.0135 22.7954C96.0953 22.7226 96.2044 22.6863 96.3407 22.6863H97.8269C97.9632 22.6863 98.0678 22.7226 98.1405 22.7954C98.2132 22.859 98.2677 22.9362 98.3041 23.0271L101.59 31.8214C101.599 31.8669 101.604 31.9078 101.604 31.9441C101.604 32.026 101.576 32.0941 101.522 32.1487C101.467 32.2032 101.404 32.2305 101.331 32.2305H100.145C100.017 32.2305 99.9221 32.2032 99.8584 32.1487C99.8039 32.085 99.7675 32.026 99.7494 31.9714L99.1085 30.308H95.0591L94.4182 31.9714C94.4001 32.026 94.3592 32.085 94.2955 32.1487C94.241 32.2032 94.1501 32.2305 94.0228 32.2305H92.8366ZM95.5363 28.74H98.6313L97.077 24.5269L95.5363 28.74ZM103.204 32.2305C103.113 32.2305 103.036 32.1987 102.972 32.135C102.908 32.0714 102.877 31.9941 102.877 31.9032V23.0271C102.877 22.9272 102.908 22.8454 102.972 22.7817C103.036 22.7181 103.113 22.6863 103.204 22.6863H106.531C107.449 22.6863 108.203 22.8272 108.794 23.109C109.394 23.3907 109.844 23.8089 110.144 24.3633C110.453 24.9178 110.612 25.595 110.621 26.3949C110.639 26.7948 110.648 27.1493 110.648 27.4584C110.648 27.7674 110.639 28.1174 110.621 28.5082C110.603 29.3536 110.448 30.0535 110.157 30.608C109.867 31.1533 109.426 31.5624 108.835 31.8351C108.253 32.0987 107.508 32.2305 106.599 32.2305H103.204ZM104.772 30.6625H106.531C107.04 30.6625 107.453 30.5898 107.771 30.4443C108.09 30.2989 108.321 30.0671 108.467 29.749C108.621 29.4218 108.703 28.9945 108.712 28.4673C108.721 28.1946 108.726 27.9583 108.726 27.7583C108.735 27.5493 108.735 27.3448 108.726 27.1448C108.726 26.9357 108.721 26.6994 108.712 26.4358C108.694 25.6904 108.508 25.1405 108.153 24.786C107.799 24.4315 107.235 24.2543 106.462 24.2543H104.772V30.6625ZM112.791 32.2305C112.7 32.2305 112.622 32.1987 112.559 32.135C112.495 32.0714 112.463 31.9941 112.463 31.9032V23.0271C112.463 22.9272 112.495 22.8454 112.559 22.7817C112.622 22.7181 112.7 22.6863 112.791 22.6863H118.79C118.89 22.6863 118.972 22.7181 119.035 22.7817C119.099 22.8454 119.131 22.9272 119.131 23.0271V23.927C119.131 24.0179 119.099 24.0952 119.035 24.1588C118.972 24.2224 118.89 24.2543 118.79 24.2543H114.304V26.6676H118.49C118.59 26.6676 118.672 26.6994 118.735 26.763C118.799 26.8176 118.831 26.8948 118.831 26.9948V27.8401C118.831 27.9401 118.799 28.0219 118.735 28.0856C118.672 28.1401 118.59 28.1674 118.49 28.1674H114.304V30.6625H118.899C118.999 30.6625 119.081 30.6943 119.144 30.7579C119.208 30.8216 119.24 30.9034 119.24 31.0034V31.9032C119.24 31.9941 119.208 32.0714 119.144 32.135C119.081 32.1987 118.999 32.2305 118.899 32.2305H112.791Z" fill="white"/>
</svg>
